# xmcd CD database file
#
# Track frame offsets:
#	150
#	20710
#	38147
#
# Disc length: 756 seconds
#
# Revision: 3
# Processed by: cddbd v1.5.2PL0 Copyright (c) Steve Scherf et al.
# Submitted via: CDex 1.70
#
DISCID=1e02f203
DTITLE=Jewel - Standing Still
DYEAR=2001
DGENRE=Pop
TTITLE0=Stephenville, TX
TTITLE1=A long Slow Slide
TTITLE2=Standing Still
EXTD=YEAR: 2001
EXTT0=
EXTT1=
EXTT2=
PLAYORDER=
